<svg xmlns="http://www.w3.org/2000/svg" viewBox="0 0 1282.52 603.62"><defs><style>.cls-1{fill:#fff;}.cls-2{fill:#40514e;}</style></defs><title>Asset 2</title><g id="Layer_2" data-name="Layer 2"><g id="Layer_1-2" data-name="Layer 1"><polygon class="cls-1" points="446.06 188.28 527.27 107.07 608.48 188.28 688.09 188.28 528.85 29.04 419.2 138.68 369.61 188.28 446.06 188.28"/><polygon class="cls-2" points="493.99 408.68 413.71 488.96 333.44 408.68 256.98 408.68 305.64 457.34 415.29 566.99 573.6 408.68 493.99 408.68"/><path class="cls-1" d="M229.66,353l22.17-10.27q3.15,11.44,11.55,17.45t21.47,6q12.37,0,19.66-6.88t7.29-18.44q0-15-25-26.84-3.5-1.75-5.37-2.57-28.24-13.77-37.64-24.92t-9.39-27.25q0-20.89,14.18-33.84t37.17-13q18.91,0,31.63,7.29a38.44,38.44,0,0,1,17.62,21l-21.71,11.2q-5.14-8.05-11.26-11.79a26.49,26.49,0,0,0-14-3.73q-11.2,0-17.8,5.83t-6.59,15.64q0,15.4,28.94,28.71,2.22,1,3.5,1.63,25.32,11.67,34.78,22.81t9.45,27.83q0,24.27-15.29,38.57t-41.31,14.3q-21.82,0-35.77-10T229.66,353Z"/><path class="cls-1" d="M425.83,239.88V387.15H398.06V239.88h-45.4V216.31H471v23.57Z"/><path class="cls-1" d="M587.69,387.15l-19.37-44H500.64l-19.84,44H451.62l82.74-177.62L617,387.15ZM510.9,320h47.61L541,281q-1.52-3.73-3.15-8.58T534.6,261.7q-1.4,5.6-3,10.44t-3.21,8.93Z"/><path class="cls-1" d="M675.22,239.88V387.15H647.44V239.88H602V216.31H720.38v23.57Z"/><path class="cls-1" d="M741.62,387.15V216.31h43.06q18.44,0,27.25,2a39.69,39.69,0,0,1,15,6.54,38.84,38.84,0,0,1,12.31,15.29A49.11,49.11,0,0,1,843.62,261q0,13.65-6.3,22.81T819,296.6q14.94,2.34,23.52,13.6t8.58,28.42a54.09,54.09,0,0,1-3.62,19.72A44.38,44.38,0,0,1,837.2,374.2a38.45,38.45,0,0,1-17.39,10q-10.39,2.92-34.89,2.92Zm27.19-98.73h10.62q19.84,0,28.07-5.43t8.23-18.26q0-14-7.58-19.66t-28.71-5.66H768.81Zm0,75.5h9.57q14.59,0,21.82-1.17t11.44-4.08a22.53,22.53,0,0,0,7.94-9.1,28.26,28.26,0,0,0,2.8-12.6A28.77,28.77,0,0,0,819,322.74a23.64,23.64,0,0,0-9.69-9.45,33.89,33.89,0,0,0-9-2.92,77.67,77.67,0,0,0-13.48-.93h-18Z"/><path class="cls-1" d="M876.67,385.9V217.56h93.94v23.23H904V283h66.58v24H904v54.39h66.58V385.9Z"/><path class="cls-1" d="M1032.55,310.72v76.44h-26V216.31h38.74q17,0,26.43,2.22a41.5,41.5,0,0,1,16,7.35,40.65,40.65,0,0,1,12.25,16,52.71,52.71,0,0,1,4.32,21.47q0,20.54-9.92,32.15t-29.29,14l58.82,77.72h-31.39l-56.83-76.44Zm1.75-21.59h5q22.05,0,29.29-5.13t7.24-18.21q0-14.12-7.76-19.9t-28.77-5.78h-5Z"/><path class="cls-1" d="M1253.23,387.15l-19.37-44h-67.69l-19.84,44h-29.17l82.74-177.62,82.62,177.62ZM1176.44,320H1224l-17.51-39q-1.52-3.73-3.15-8.58t-3.27-10.79q-1.4,5.6-3,10.44t-3.21,8.93Z"/><polygon class="cls-2" points="517.77 188.28 329.49 0 195.11 134.37 62.06 267.42 107.59 315.6 327.55 95.63 420.2 188.28 517.77 188.28"/><polygon class="cls-1" points="364.81 408.68 265.49 507.99 45.53 288.03 0 336.2 267.42 603.62 462.37 408.68 364.81 408.68"/><polyline class="cls-1" points="191.72 111.63 191.72 36.18 124.72 36.18 124.72 182.81"/></g></g></svg>
